# xmcd CD database file
#
# Track frame offsets:
#	150
#	18640
#	35957
#	54003
#	72262
#	87414
#	110853
#	129677
#	150481
#	164007
#	179945
#	200355
#	220836
#
# Disc length: 3174 seconds
#
# Revision: 0
# Processed by: cddbd v1.5.2PL0 Copyright (c) Steve Scherf et al.
# Submitted via: CDex 1.70beta1
#
DISCID=c60c640d
DTITLE=Tim McGraw - Set This Circus Down
DYEAR=2002
DGENRE=Country
TTITLE0=Cowboy In Me
TTITLE1=Telluride
TTITLE2=You Get Used To Somebody
TTITLE3=Unbroken
TTITLE4=Things Change
TTITLE5=Angel Boy
TTITLE6=Forget About Us
TTITLE7=Take Me Away From Here
TTITLE8=Smillin'
TTITLE9=Set This Circus Down
TTITLE10=Angry All The Time
TTITLE11=Let me Love You
TTITLE12=Grown Men dont Cry
EXTD=YEAR: 2002
EXTT0=
EXTT1=
EXTT2=
EXTT3=
EXTT4=
EXTT5=
EXTT6=
EXTT7=
EXTT8=
EXTT9=
EXTT10=
EXTT11=
EXTT12=
PLAYORDER=
